<svg width="244" height="52" viewBox="0 0 244 52" fill="none" xmlns="http://www.w3.org/2000/svg">
<path fill-rule="evenodd" clip-rule="evenodd" d="M42.5137 51.0876L72.8554 51.0876V40.8386L52.728 40.8386V34.8468L72.8554 34.8468V8.35035L36.5423 8.35035V0L26.328 0V8.35693L0 8.35693L0 18.606H0.0720243L26.1578 51.0843L26.3149 50.9267V51.0876H36.5161V18.606H62.6149V24.5977H42.5137V51.0876ZM26.3149 35.1425L12.8923 18.606H26.3149L26.3149 35.1425Z" fill="#6638B6"/>
<path d="M90.85 8.69995V46.106H109.73V50H86.72V8.69995H90.85Z" fill="white"/>
<path d="M138.277 46.283C135.248 49.233 131.59 50.708 127.303 50.708C122.937 50.708 119.259 49.233 116.27 46.283C113.28 43.2936 111.786 39.616 111.786 35.25C111.786 30.884 113.28 27.226 116.27 24.276C119.259 21.2866 122.937 19.792 127.303 19.792C131.629 19.792 135.287 21.2866 138.277 24.276C141.305 27.226 142.82 30.884 142.82 35.25C142.82 39.5766 141.305 43.2543 138.277 46.283ZM119.043 43.569C121.285 45.811 124.038 46.932 127.303 46.932C130.567 46.932 133.321 45.811 135.563 43.569C137.805 41.2483 138.926 38.4753 138.926 35.25C138.926 31.9853 137.805 29.232 135.563 26.99C133.321 24.7086 130.567 23.568 127.303 23.568C124.038 23.568 121.285 24.7086 119.043 26.99C116.801 29.232 115.68 31.9853 115.68 35.25C115.68 38.4753 116.801 41.2483 119.043 43.569Z" fill="white"/>
<path d="M153.23 20.5V25.397C155.039 21.8176 158.147 20.028 162.552 20.028V23.804C159.72 23.804 157.458 24.63 155.767 26.282C154.076 27.8946 153.23 30.3333 153.23 33.598V50H149.336V20.5H153.23Z" fill="white"/>
<path d="M179.732 19.792C184.137 19.792 187.657 21.3456 190.293 24.453C193.007 27.521 194.364 31.1593 194.364 35.368C194.364 35.5646 194.324 36.1743 194.246 37.197H168.345C168.738 40.147 169.997 42.507 172.121 44.277C174.245 46.047 176.9 46.932 180.086 46.932C184.57 46.932 187.736 45.2603 189.585 41.917L193.007 43.923C191.709 46.047 189.919 47.7186 187.638 48.938C185.396 50.118 182.859 50.708 180.027 50.708C175.385 50.708 171.609 49.2526 168.699 46.342C165.788 43.4313 164.333 39.734 164.333 35.25C164.333 30.8053 165.768 27.1276 168.64 24.217C171.511 21.267 175.208 19.792 179.732 19.792ZM179.732 23.568C176.664 23.568 174.087 24.4726 172.003 26.282C169.957 28.0913 168.738 30.471 168.345 33.421H190.352C189.919 30.2743 188.719 27.8553 186.753 26.164C184.707 24.4333 182.367 23.568 179.732 23.568Z" fill="white"/>
<path d="M232.005 19.792C235.348 19.792 238.023 20.854 240.029 22.978C242.035 25.102 243.038 27.9733 243.038 31.592V50H239.144V31.592C239.144 29.0746 238.495 27.108 237.197 25.692C235.899 24.276 234.148 23.568 231.946 23.568C229.389 23.568 227.383 24.4136 225.928 26.105C224.472 27.7963 223.745 30.3136 223.745 33.657V50H219.851V31.592C219.851 29.0353 219.241 27.0686 218.022 25.692C216.802 24.276 215.111 23.568 212.948 23.568C210.47 23.568 208.424 24.4333 206.812 26.164C205.238 27.8946 204.452 30.3923 204.452 33.657V50H200.558V20.5H204.452V24.807C206.576 21.4636 209.585 19.792 213.479 19.792C217.766 19.792 220.755 21.5816 222.447 25.161C224.571 21.5816 227.757 19.792 232.005 19.792Z" fill="white"/>
</svg>
